<svg xmlns="http://www.w3.org/2000/svg" viewBox="0 0 700 950" role="img" aria-labelledby="t d"><title id="t">Tiangong Ultra — WHRG 2026 hero</title><desc id="d">Detailed silver humanoid competition robot with black articulated torso and blue lighting.</desc><defs><linearGradient id="metal" x1="0" y1="0" x2="1" y2="1"><stop stop-color="#fff"/><stop offset=".24" stop-color="#eef3ff"/><stop offset=".5" stop-color="#b9c5df"/><stop offset=".75" stop-color="#f8fbff"/><stop offset="1" stop-color="#8fa2c4"/></linearGradient><linearGradient id="metal2" x1="0" y1="1" x2="1" y2="0"><stop stop-color="#9aa9c6"/><stop offset=".45" stop-color="#f9fbff"/><stop offset="1" stop-color="#c9d2e6"/></linearGradient><linearGradient id="carbon" x1="0" y1="0" x2="1" y2="1"><stop stop-color="#151b28"/><stop offset=".48" stop-color="#05070d"/><stop offset="1" stop-color="#303a4d"/></linearGradient><linearGradient id="blue" x1="0" x2="1"><stop stop-color="#4d73ff"/><stop offset=".48" stop-color="#42e9ff"/><stop offset="1" stop-color="#b6f8ff"/></linearGradient><radialGradient id="visor" cx="50%" cy="35%" r="80%"><stop stop-color="#182746"/><stop offset=".42" stop-color="#070b14"/><stop offset="1" stop-color="#010207"/></radialGradient><filter id="shadow"><feDropShadow dx="0" dy="24" stdDeviation="22" flood-color="#201a57" flood-opacity=".34"/></filter><filter id="glow"><feGaussianBlur stdDeviation="5" result="b"/><feMerge><feMergeNode in="b"/><feMergeNode in="SourceGraphic"/></feMerge></filter><pattern id="rib" width="16" height="16" patternUnits="userSpaceOnUse"><path d="M0 8h16" stroke="#65718a" stroke-opacity=".28" stroke-width="2"/></pattern></defs><ellipse cx="350" cy="908" rx="238" ry="25" fill="#443e91" opacity=".18"/><g filter="url(#shadow)"><path d="M271 54q79-49 160 0l36 77-17 92q-40 65-100 71-62-8-101-72l-18-91z" fill="url(#metal)" stroke="#fff" stroke-width="5"/><path d="M270 88q78-39 160 1l18 58-14 56q-35 49-84 54-51-5-84-55l-13-56z" fill="url(#visor)" stroke="#8697ba" stroke-width="3"/><path d="M283 152l63-17-19 37-51 8zm134 0-63-17 19 37 51 8z" fill="url(#blue)" filter="url(#glow)"/><circle cx="238" cy="151" r="36" fill="url(#metal2)" stroke="#fff" stroke-width="4"/><circle cx="238" cy="151" r="23" fill="#101726" stroke="#53e7ff" stroke-width="5"/><circle cx="462" cy="151" r="36" fill="url(#metal2)" stroke="#fff" stroke-width="4"/><circle cx="462" cy="151" r="23" fill="#101726" stroke="#53e7ff" stroke-width="5"/><path d="M293 278h114l25 72-164 0z" fill="url(#carbon)"/><path d="M288 284v72m25-76v80m28-82v84m29-83v81m29-76v72" stroke="#4d5f79" stroke-width="7"/><path d="M183 337q72-45 167-40 96-5 169 40l58 160-37 154q-57 102-190 119-131-17-190-119l-36-154z" fill="url(#metal)" stroke="#fff" stroke-width="6"/><path d="M222 370q62-40 128-39 68-2 129 39l34 118-36 123q-50 70-127 82-77-12-128-82l-35-123z" fill="#eef3ff" opacity=".96"/><path d="M253 407h194l23 95-53 107H283l-52-107z" fill="url(#carbon)" stroke="#aebad2" stroke-width="3"/><path d="M285 427h130l13 49H272z" fill="#0b1120" stroke="#7b8dac" stroke-width="3"/><path d="M302 444h96" stroke="url(#blue)" stroke-width="7" stroke-linecap="round" filter="url(#glow)"/><path d="M283 522h134l-15 70-52 36-52-36z" fill="#e9eef9" stroke="#fff" stroke-width="3"/><text x="350" y="552" text-anchor="middle" font-family="Inter,Arial,sans-serif" font-size="28" font-weight="800" fill="#405176">TIANGONG</text><text x="350" y="582" text-anchor="middle" font-family="Inter,Arial,sans-serif" font-size="20" font-weight="800" fill="#59698c">ULTRA</text><text x="350" y="614" text-anchor="middle" font-family="Inter,Arial,sans-serif" font-size="22" font-weight="900" fill="#796fe8">01</text><path d="M162 355q-92 23-132 101l34 100q67-4 116-58l39-116z" fill="url(#metal)" stroke="#fff" stroke-width="5"/><path d="M62 526q-47 55-52 164l58 29q48-79 55-168z" fill="url(#carbon)"/><path d="M22 672q-17 91 22 159l66-17q13-79-22-147z" fill="url(#metal2)" stroke="#fff" stroke-width="4"/><path d="M50 807q-6 64 41 98l44-43-26-66z" fill="url(#carbon)"/><path d="M538 355q92 23 132 101l-34 100q-67-4-116-58l-39-116z" fill="url(#metal)" stroke="#fff" stroke-width="5"/><path d="M638 526q47 55 52 164l-58 29q-48-79-55-168z" fill="url(#carbon)"/><path d="M678 672q17 91-22 159l-66-17q-13-79 22-147z" fill="url(#metal2)" stroke="#fff" stroke-width="4"/><path d="M650 807q6 64-41 98l-44-43 26-66z" fill="url(#carbon)"/><path d="M270 682h160l28 79q-45 56-108 58-65-3-108-58z" fill="url(#carbon)" stroke="#66728b" stroke-width="3"/><path d="M290 704h120l15 48q-31 35-75 37-44-2-75-37z" fill="url(#metal2)"/><path d="M274 760q-49 66-57 154l66 20q45-76 52-155z" fill="url(#metal)" stroke="#fff" stroke-width="4"/><path d="M426 760q49 66 57 154l-66 20q-45-76-52-155z" fill="url(#metal)" stroke="#fff" stroke-width="4"/><path d="M287 474h126v145H287z" fill="url(#rib)" opacity=".24"/><path d="M153 449l-62 39m456-39 62 39M185 632l82 25m248-25-82 25" stroke="#56dfff" stroke-width="5" opacity=".7"/><circle cx="350" cy="324" r="8" fill="#5ceaff" filter="url(#glow)"/><path d="M181 395l-47 25m385-25 47 25" stroke="#fff" stroke-opacity=".6" stroke-width="3"/></g></svg>